<svg xmlns="http://www.w3.org/2000/svg" xmlns:xlink="http://www.w3.org/1999/xlink" version="1.1" width="56.506pt" height="32.744pt" viewBox="0 0 56.506 32.744">
<text xml:space="preserve" transform="matrix(1 0 -0 1 .0000009536743 32.744005)" font-size="9.96264" font-family="CMMI10" font-style="italic"><tspan y="-10.59" x="6.641">f</tspan></text>
<text xml:space="preserve" transform="matrix(1 0 -0 1 .0000009536743 32.744005)" font-size="6.97385" font-family="CMMI7" font-style="italic"><tspan y="-14.206" x="12.591">i</tspan><tspan y="-8.127" x="11.519">&#x03b1;</tspan></text>
<text xml:space="preserve" transform="matrix(1 0 -0 1 .0000009536743 32.744005)" font-size="9.96264" font-family="CMMI10" font-style="italic"><tspan y="-10.59" x="17.196">g</tspan></text>
<text xml:space="preserve" transform="matrix(1 0 -0 1 .0000009536743 32.744005)" font-size="6.97385" font-family="CMMI7" font-style="italic"><tspan y="-14.206" x="22.305">&#x03b1;</tspan><tspan y="-7.997" x="21.948">j</tspan></text>
<path transform="matrix(1,0,0,-1,43.956,20.013)" stroke-width=".3985" stroke-linecap="butt" stroke-miterlimit="10" stroke-linejoin="miter" fill="none" stroke="#000000" d=""/>
<path transform="matrix(1,0,0,-1,43.956,20.013)" stroke-width=".3985" stroke-linecap="butt" stroke-miterlimit="10" stroke-linejoin="miter" fill="none" stroke="#000000" d="M0 1.49442V8.46835"/>
<path transform="matrix(1,0,0,-1,43.956,20.013)" d="M1.49442 0C1.49442 .82533 .82533 1.49442 0 1.49442-.82533 1.49442-1.49442 .82533-1.49442 0-1.49442-.82533-.82533-1.49442 0-1.49442 .82533-1.49442 1.49442-.82533 1.49442 0ZM0 0"/>
<path transform="matrix(1,0,0,-1,43.956,20.013)" stroke-width=".3985" stroke-linecap="butt" stroke-miterlimit="10" stroke-linejoin="miter" fill="none" stroke="#000000" d="M2.49069 0C2.49069 1.37558 1.37558 2.49069 0 2.49069-1.37558 2.49069-2.49069 1.37558-2.49069 0-2.49069-1.37558-1.37558-2.49069 0-2.49069 1.37558-2.49069 2.49069-1.37558 2.49069 0ZM0 0"/>
<path transform="matrix(1,0,0,-1,43.956,10.051001)" d="M1.49442 0C1.49442 .82533 .82533 1.49442 0 1.49442-.82533 1.49442-1.49442 .82533-1.49442 0-1.49442-.82533-.82533-1.49442 0-1.49442 .82533-1.49442 1.49442-.82533 1.49442 0ZM0 0"/>
<text xml:space="preserve" transform="matrix(1 0 -0 1 .0000038146974 32.744)" font-size="7.97011" font-family="CMMI8" font-style="italic"><tspan y="-20.834" x="45.981">j</tspan></text>
</svg>
