<svg xmlns="http://www.w3.org/2000/svg" xmlns:xlink="http://www.w3.org/1999/xlink" version="1.1" width="19.298pt" height="35.986pt" viewBox="0 0 19.298 35.986">
<path transform="matrix(1,0,0,-1,6.01,29.976)" stroke-width=".3985" stroke-linecap="butt" stroke-miterlimit="10" stroke-linejoin="miter" fill="none" stroke="#000000" d=""/>
<path transform="matrix(1,0,0,-1,6.01,29.976)" stroke-width=".3985" stroke-linecap="butt" stroke-miterlimit="10" stroke-linejoin="miter" fill="none" stroke="#000000" d="M0 1.49442V8.46835"/>
<path transform="matrix(1,0,0,-1,6.01,29.976)" stroke-width=".3985" stroke-linecap="butt" stroke-miterlimit="10" stroke-linejoin="miter" fill="none" stroke="#000000" d=""/>
<path transform="matrix(1,0,0,-1,6.01,29.976)" stroke-width=".3985" stroke-linecap="butt" stroke-miterlimit="10" stroke-linejoin="miter" fill="none" stroke="#000000" d="M0 11.45718V18.43112"/>
<path transform="matrix(1,0,0,-1,6.01,29.976)" d="M1.49442 0C1.49442 .82533 .82533 1.49442 0 1.49442-.82533 1.49442-1.49442 .82533-1.49442 0-1.49442-.82533-.82533-1.49442 0-1.49442 .82533-1.49442 1.49442-.82533 1.49442 0ZM0 0"/>
<path transform="matrix(1,0,0,-1,6.01,29.976)" stroke-width=".3985" stroke-linecap="butt" stroke-miterlimit="10" stroke-linejoin="miter" fill="none" stroke="#000000" d="M2.49069 0C2.49069 1.37558 1.37558 2.49069 0 2.49069-1.37558 2.49069-2.49069 1.37558-2.49069 0-2.49069-1.37558-1.37558-2.49069 0-2.49069 1.37558-2.49069 2.49069-1.37558 2.49069 0ZM0 0"/>
<path transform="matrix(1,0,0,-1,6.01,20.013)" d="M1.49442 0C1.49442 .82533 .82533 1.49442 0 1.49442-.82533 1.49442-1.49442 .82533-1.49442 0-1.49442-.82533-.82533-1.49442 0-1.49442 .82533-1.49442 1.49442-.82533 1.49442 0ZM0 0"/>
<text xml:space="preserve" transform="matrix(1 0 -0 1 0 35.986)" font-size="7.97011" font-family="CMMI8" font-style="italic"><tspan y="-13.206" x="8.036">k</tspan></text>
<path transform="matrix(1,0,0,-1,6.01,10.049999)" d="M1.49442 0C1.49442 .82533 .82533 1.49442 0 1.49442-.82533 1.49442-1.49442 .82533-1.49442 0-1.49442-.82533-.82533-1.49442 0-1.49442 .82533-1.49442 1.49442-.82533 1.49442 0ZM0 0"/>
<text xml:space="preserve" transform="matrix(1 0 -0 1 0 35.986)" font-size="7.97011" font-family="CMMI8" font-style="italic"><tspan y="-24.076" x="8.036">j</tspan></text>
</svg>
