<svg xmlns="http://www.w3.org/2000/svg" xmlns:xlink="http://www.w3.org/1999/xlink" version="1.1" width="284.847pt" height="94.566pt" viewBox="0 0 284.847 94.566">
<path transform="matrix(1,0,0,-1,95.343,29.334004)" stroke-width=".3985" stroke-linecap="butt" stroke-miterlimit="10" stroke-linejoin="miter" fill="none" stroke="#000000" d=""/>
<path transform="matrix(1,0,0,-1,95.343,29.334004)" stroke-width=".3985" stroke-linecap="butt" stroke-miterlimit="10" stroke-linejoin="miter" fill="none" stroke="#ff0000" d="M.66847 1.33693 4.3129 8.62582"/>
<path transform="matrix(1,0,0,-1,95.343,29.334004)" stroke-width=".3985" stroke-linecap="butt" stroke-miterlimit="10" stroke-linejoin="miter" fill="none" stroke="#000000" d=""/>
<path transform="matrix(1,0,0,-1,95.343,29.334004)" stroke-width=".3985" stroke-linecap="butt" stroke-miterlimit="10" stroke-linejoin="miter" fill="none" stroke="#000000" d="M-.66847 1.33693-4.3129 8.62582"/>
<path transform="matrix(1,0,0,-1,95.343,29.334004)" d="M1.49442 0C1.49442 .82533 .82533 1.49442 0 1.49442-.82533 1.49442-1.49442 .82533-1.49442 0-1.49442-.82533-.82533-1.49442 0-1.49442 .82533-1.49442 1.49442-.82533 1.49442 0ZM0 0"/>
<path transform="matrix(1,0,0,-1,95.343,29.334004)" stroke-width=".3985" stroke-linecap="butt" stroke-miterlimit="10" stroke-linejoin="miter" fill="none" stroke="#000000" d="M2.49069 0C2.49069 1.37558 1.37558 2.49069 0 2.49069-1.37558 2.49069-2.49069 1.37558-2.49069 0-2.49069-1.37558-1.37558-2.49069 0-2.49069 1.37558-2.49069 2.49069-1.37558 2.49069 0ZM0 0"/>
<path transform="matrix(1,0,0,-1,100.324008,19.371003)" d="M1.49442 0C1.49442 .82533 .82533 1.49442 0 1.49442-.82533 1.49442-1.49442 .82533-1.49442 0-1.49442-.82533-.82533-1.49442 0-1.49442 .82533-1.49442 1.49442-.82533 1.49442 0ZM0 0" fill="#ff0000"/>
<text fill="#ff0000" xml:space="preserve" transform="matrix(1 0 -0 1 0 94.56601)" font-size="7.97011" font-family="CMMI8" font-style="italic"><tspan y="-72.427" x="102.349">k</tspan></text>
<path transform="matrix(1,0,0,-1,90.361,19.371003)" d="M1.49442 0C1.49442 .82533 .82533 1.49442 0 1.49442-.82533 1.49442-1.49442 .82533-1.49442 0-1.49442-.82533-.82533-1.49442 0-1.49442 .82533-1.49442 1.49442-.82533 1.49442 0ZM0 0"/>
<text xml:space="preserve" transform="matrix(1 0 -0 1 0 94.566)" font-size="7.97011" font-family="CMMI8" font-style="italic"><tspan y="-73.335" x="84.452">j</tspan></text>
<path transform="matrix(1,0,0,-1,233.36402,29.334004)" stroke-width=".3985" stroke-linecap="butt" stroke-miterlimit="10" stroke-linejoin="miter" fill="none" stroke="#000000" d=""/>
<path transform="matrix(1,0,0,-1,233.36402,29.334004)" stroke-width=".3985" stroke-linecap="butt" stroke-miterlimit="10" stroke-linejoin="miter" fill="none" stroke="#000000" d="M0 1.49442V8.46835"/>
<path transform="matrix(1,0,0,-1,233.36402,29.334004)" stroke-width=".3985" stroke-linecap="butt" stroke-miterlimit="10" stroke-linejoin="miter" fill="none" stroke="#000000" d=""/>
<path transform="matrix(1,0,0,-1,233.36402,29.334004)" stroke-width=".3985" stroke-linecap="butt" stroke-miterlimit="10" stroke-linejoin="miter" fill="none" stroke="#ff0000" d="M0 11.45718V18.43112"/>
<path transform="matrix(1,0,0,-1,233.36402,29.334004)" d="M1.49442 0C1.49442 .82533 .82533 1.49442 0 1.49442-.82533 1.49442-1.49442 .82533-1.49442 0-1.49442-.82533-.82533-1.49442 0-1.49442 .82533-1.49442 1.49442-.82533 1.49442 0ZM0 0"/>
<path transform="matrix(1,0,0,-1,233.36402,29.334004)" stroke-width=".3985" stroke-linecap="butt" stroke-miterlimit="10" stroke-linejoin="miter" fill="none" stroke="#000000" d="M2.49069 0C2.49069 1.37558 1.37558 2.49069 0 2.49069-1.37558 2.49069-2.49069 1.37558-2.49069 0-2.49069-1.37558-1.37558-2.49069 0-2.49069 1.37558-2.49069 2.49069-1.37558 2.49069 0ZM0 0"/>
<path transform="matrix(1,0,0,-1,233.36402,19.371003)" d="M1.49442 0C1.49442 .82533 .82533 1.49442 0 1.49442-.82533 1.49442-1.49442 .82533-1.49442 0-1.49442-.82533-.82533-1.49442 0-1.49442 .82533-1.49442 1.49442-.82533 1.49442 0ZM0 0"/>
<text xml:space="preserve" transform="matrix(1 0 -0 1 0 94.566)" font-size="7.97011" font-family="CMMI8" font-style="italic"><tspan y="-73.335" x="235.389">j</tspan></text>
<path transform="matrix(1,0,0,-1,233.36402,9.409004)" d="M1.49442 0C1.49442 .82533 .82533 1.49442 0 1.49442-.82533 1.49442-1.49442 .82533-1.49442 0-1.49442-.82533-.82533-1.49442 0-1.49442 .82533-1.49442 1.49442-.82533 1.49442 0ZM0 0" fill="#ff0000"/>
<text fill="#ff0000" xml:space="preserve" transform="matrix(1 0 -0 1 0 94.566)" font-size="7.97011" font-family="CMMI8" font-style="italic"><tspan y="-82.39" x="235.389">k</tspan></text>
<path transform="matrix(1,0,0,-1,42.438016,83.574008)" stroke-width=".3985" stroke-linecap="butt" stroke-miterlimit="10" stroke-linejoin="miter" fill="none" stroke="#000000" d=""/>
<path transform="matrix(1,0,0,-1,42.438016,83.574008)" stroke-width=".3985" stroke-linecap="butt" stroke-miterlimit="10" stroke-linejoin="miter" fill="none" stroke="#ff0000" d="M1.0567-3.92467 8.90605 3.92467"/>
<path transform="matrix(1,0,0,-1,42.438016,83.574008)" stroke-width=".3985" stroke-linecap="butt" stroke-miterlimit="10" stroke-linejoin="miter" fill="none" stroke="#000000" d=""/>
<path transform="matrix(1,0,0,-1,42.438016,83.574008)" stroke-width=".3985" stroke-linecap="butt" stroke-miterlimit="10" stroke-linejoin="miter" fill="none" stroke="#000000" d="M0-3.48697V3.48697"/>
<path transform="matrix(1,0,0,-1,42.438016,83.574008)" stroke-width=".3985" stroke-linecap="butt" stroke-miterlimit="10" stroke-linejoin="miter" fill="none" stroke="#000000" d=""/>
<path transform="matrix(1,0,0,-1,42.438016,83.574008)" stroke-width=".3985" stroke-linecap="butt" stroke-miterlimit="10" stroke-linejoin="miter" fill="none" stroke="#000000" d="M-1.0567-3.92467-8.90605 3.92467"/>
<path transform="matrix(1,0,0,-1,42.438016,88.55601)" d="M1.49442 0C1.49442 .82533 .82533 1.49442 0 1.49442-.82533 1.49442-1.49442 .82533-1.49442 0-1.49442-.82533-.82533-1.49442 0-1.49442 .82533-1.49442 1.49442-.82533 1.49442 0ZM0 0"/>
<path transform="matrix(1,0,0,-1,42.438016,83.574008)" stroke-width=".3985" stroke-linecap="butt" stroke-miterlimit="10" stroke-linejoin="miter" fill="none" stroke="#000000" d="M2.49069-4.98138C2.49069-3.60579 1.37558-2.49069 0-2.49069-1.37558-2.49069-2.49069-3.60579-2.49069-4.98138-2.49069-6.35696-1.37558-7.47208 0-7.47208 1.37558-7.47208 2.49069-6.35696 2.49069-4.98138ZM0-4.98138"/>
<path transform="matrix(1,0,0,-1,52.401018,78.593)" d="M1.49442 0C1.49442 .82533 .82533 1.49442 0 1.49442-.82533 1.49442-1.49442 .82533-1.49442 0-1.49442-.82533-.82533-1.49442 0-1.49442 .82533-1.49442 1.49442-.82533 1.49442 0ZM0 0" fill="#ff0000"/>
<text fill="#ff0000" xml:space="preserve" transform="matrix(1 0 -0 1 .000015258789 94.56601)" font-size="7.97011" font-family="CMMI8" font-style="italic"><tspan y="-13.206" x="54.426">&#x2113;</tspan></text>
<path transform="matrix(1,0,0,-1,42.438016,78.593)" d="M1.49442 0C1.49442 .82533 .82533 1.49442 0 1.49442-.82533 1.49442-1.49442 .82533-1.49442 0-1.49442-.82533-.82533-1.49442 0-1.49442 .82533-1.49442 1.49442-.82533 1.49442 0ZM0 0"/>
<text xml:space="preserve" transform="matrix(1 0 -0 1 .000015258789 94.56601)" font-size="7.97011" font-family="CMMI8" font-style="italic"><tspan y="-13.206" x="44.464">k</tspan></text>
<path transform="matrix(1,0,0,-1,32.476015,78.593)" d="M1.49442 0C1.49442 .82533 .82533 1.49442 0 1.49442-.82533 1.49442-1.49442 .82533-1.49442 0-1.49442-.82533-.82533-1.49442 0-1.49442 .82533-1.49442 1.49442-.82533 1.49442 0ZM0 0"/>
<text xml:space="preserve" transform="matrix(1 0 -0 1 .000015258789 94.566)" font-size="7.97011" font-family="CMMI8" font-style="italic"><tspan y="-14.113" x="26.566">j</tspan></text>
<path transform="matrix(1,0,0,-1,95.34302,83.574008)" stroke-width=".3985" stroke-linecap="butt" stroke-miterlimit="10" stroke-linejoin="miter" fill="none" stroke="#000000" d=""/>
<path transform="matrix(1,0,0,-1,95.34302,83.574008)" stroke-width=".3985" stroke-linecap="butt" stroke-miterlimit="10" stroke-linejoin="miter" fill="none" stroke="#ff0000" d="M4.98138 6.4758V13.44974"/>
<path transform="matrix(1,0,0,-1,95.34302,83.574008)" stroke-width=".3985" stroke-linecap="butt" stroke-miterlimit="10" stroke-linejoin="miter" fill="none" stroke="#000000" d=""/>
<path transform="matrix(1,0,0,-1,95.34302,83.574008)" stroke-width=".3985" stroke-linecap="butt" stroke-miterlimit="10" stroke-linejoin="miter" fill="none" stroke="#000000" d="M.66847-3.64444 4.3129 3.64444"/>
<path transform="matrix(1,0,0,-1,95.34302,83.574008)" stroke-width=".3985" stroke-linecap="butt" stroke-miterlimit="10" stroke-linejoin="miter" fill="none" stroke="#000000" d=""/>
<path transform="matrix(1,0,0,-1,95.34302,83.574008)" stroke-width=".3985" stroke-linecap="butt" stroke-miterlimit="10" stroke-linejoin="miter" fill="none" stroke="#000000" d="M-.66847-3.64444-4.3129 3.64444"/>
<path transform="matrix(1,0,0,-1,95.34302,88.55601)" d="M1.49442 0C1.49442 .82533 .82533 1.49442 0 1.49442-.82533 1.49442-1.49442 .82533-1.49442 0-1.49442-.82533-.82533-1.49442 0-1.49442 .82533-1.49442 1.49442-.82533 1.49442 0ZM0 0"/>
<path transform="matrix(1,0,0,-1,95.34302,83.574008)" stroke-width=".3985" stroke-linecap="butt" stroke-miterlimit="10" stroke-linejoin="miter" fill="none" stroke="#000000" d="M2.49069-4.98138C2.49069-3.60579 1.37558-2.49069 0-2.49069-1.37558-2.49069-2.49069-3.60579-2.49069-4.98138-2.49069-6.35696-1.37558-7.47208 0-7.47208 1.37558-7.47208 2.49069-6.35696 2.49069-4.98138ZM0-4.98138"/>
<path transform="matrix(1,0,0,-1,100.32402,78.593)" d="M1.49442 0C1.49442 .82533 .82533 1.49442 0 1.49442-.82533 1.49442-1.49442 .82533-1.49442 0-1.49442-.82533-.82533-1.49442 0-1.49442 .82533-1.49442 1.49442-.82533 1.49442 0ZM0 0"/>
<text xml:space="preserve" transform="matrix(1 0 -0 1 .000015258789 94.56601)" font-size="7.97011" font-family="CMMI8" font-style="italic"><tspan y="-13.206" x="102.349">k</tspan></text>
<path transform="matrix(1,0,0,-1,100.32402,68.630008)" d="M1.49442 0C1.49442 .82533 .82533 1.49442 0 1.49442-.82533 1.49442-1.49442 .82533-1.49442 0-1.49442-.82533-.82533-1.49442 0-1.49442 .82533-1.49442 1.49442-.82533 1.49442 0ZM0 0" fill="#ff0000"/>
<text fill="#ff0000" xml:space="preserve" transform="matrix(1 0 -0 1 .000015258789 94.566)" font-size="7.97011" font-family="CMMI8" font-style="italic"><tspan y="-23.168" x="102.349">&#x2113;</tspan></text>
<path transform="matrix(1,0,0,-1,90.361019,78.593)" d="M1.49442 0C1.49442 .82533 .82533 1.49442 0 1.49442-.82533 1.49442-1.49442 .82533-1.49442 0-1.49442-.82533-.82533-1.49442 0-1.49442 .82533-1.49442 1.49442-.82533 1.49442 0ZM0 0"/>
<text xml:space="preserve" transform="matrix(1 0 -0 1 .000015258789 94.566)" font-size="7.97011" font-family="CMMI8" font-style="italic"><tspan y="-14.113" x="84.452">j</tspan></text>
<path transform="matrix(1,0,0,-1,144.42801,83.574008)" stroke-width=".3985" stroke-linecap="butt" stroke-miterlimit="10" stroke-linejoin="miter" fill="none" stroke="#000000" d=""/>
<path transform="matrix(1,0,0,-1,144.42801,83.574008)" stroke-width=".3985" stroke-linecap="butt" stroke-miterlimit="10" stroke-linejoin="miter" fill="none" stroke="#ff0000" d="M-4.98138 6.4758V13.44974"/>
<path transform="matrix(1,0,0,-1,144.42801,83.574008)" stroke-width=".3985" stroke-linecap="butt" stroke-miterlimit="10" stroke-linejoin="miter" fill="none" stroke="#000000" d=""/>
<path transform="matrix(1,0,0,-1,144.42801,83.574008)" stroke-width=".3985" stroke-linecap="butt" stroke-miterlimit="10" stroke-linejoin="miter" fill="none" stroke="#000000" d="M.66847-3.64444 4.3129 3.64444"/>
<path transform="matrix(1,0,0,-1,144.42801,83.574008)" stroke-width=".3985" stroke-linecap="butt" stroke-miterlimit="10" stroke-linejoin="miter" fill="none" stroke="#000000" d=""/>
<path transform="matrix(1,0,0,-1,144.42801,83.574008)" stroke-width=".3985" stroke-linecap="butt" stroke-miterlimit="10" stroke-linejoin="miter" fill="none" stroke="#000000" d="M-.66847-3.64444-4.3129 3.64444"/>
<path transform="matrix(1,0,0,-1,144.42801,88.55601)" d="M1.49442 0C1.49442 .82533 .82533 1.49442 0 1.49442-.82533 1.49442-1.49442 .82533-1.49442 0-1.49442-.82533-.82533-1.49442 0-1.49442 .82533-1.49442 1.49442-.82533 1.49442 0ZM0 0"/>
<path transform="matrix(1,0,0,-1,144.42801,83.574008)" stroke-width=".3985" stroke-linecap="butt" stroke-miterlimit="10" stroke-linejoin="miter" fill="none" stroke="#000000" d="M2.49069-4.98138C2.49069-3.60579 1.37558-2.49069 0-2.49069-1.37558-2.49069-2.49069-3.60579-2.49069-4.98138-2.49069-6.35696-1.37558-7.47208 0-7.47208 1.37558-7.47208 2.49069-6.35696 2.49069-4.98138ZM0-4.98138"/>
<path transform="matrix(1,0,0,-1,149.40901,78.593)" d="M1.49442 0C1.49442 .82533 .82533 1.49442 0 1.49442-.82533 1.49442-1.49442 .82533-1.49442 0-1.49442-.82533-.82533-1.49442 0-1.49442 .82533-1.49442 1.49442-.82533 1.49442 0ZM0 0"/>
<text xml:space="preserve" transform="matrix(1 0 -0 1 .000015258789 94.56601)" font-size="7.97011" font-family="CMMI8" font-style="italic"><tspan y="-13.206" x="151.435">k</tspan></text>
<path transform="matrix(1,0,0,-1,139.447,78.593)" d="M1.49442 0C1.49442 .82533 .82533 1.49442 0 1.49442-.82533 1.49442-1.49442 .82533-1.49442 0-1.49442-.82533-.82533-1.49442 0-1.49442 .82533-1.49442 1.49442-.82533 1.49442 0ZM0 0"/>
<text xml:space="preserve" transform="matrix(1 0 -0 1 0 94.566)" font-size="7.97011" font-family="CMMI8" font-style="italic"><tspan y="-14.113" x="133.537">j</tspan></text>
<path transform="matrix(1,0,0,-1,139.447,68.630008)" d="M1.49442 0C1.49442 .82533 .82533 1.49442 0 1.49442-.82533 1.49442-1.49442 .82533-1.49442 0-1.49442-.82533-.82533-1.49442 0-1.49442 .82533-1.49442 1.49442-.82533 1.49442 0ZM0 0" fill="#ff0000"/>
<text fill="#ff0000" xml:space="preserve" transform="matrix(1 0 -0 1 0 94.566)" font-size="7.97011" font-family="CMMI8" font-style="italic"><tspan y="-23.168" x="133.962">&#x2113;</tspan></text>
<path transform="matrix(1,0,0,-1,233.36402,83.574008)" stroke-width=".3985" stroke-linecap="butt" stroke-miterlimit="10" stroke-linejoin="miter" fill="none" stroke="#000000" d=""/>
<path transform="matrix(1,0,0,-1,233.36402,83.574008)" stroke-width=".3985" stroke-linecap="butt" stroke-miterlimit="10" stroke-linejoin="miter" fill="none" stroke="#ff0000" d="M4.98138 6.4758V13.44974"/>
<path transform="matrix(1,0,0,-1,233.36402,83.574008)" stroke-width=".3985" stroke-linecap="butt" stroke-miterlimit="10" stroke-linejoin="miter" fill="none" stroke="#000000" d=""/>
<path transform="matrix(1,0,0,-1,233.36402,83.574008)" stroke-width=".3985" stroke-linecap="butt" stroke-miterlimit="10" stroke-linejoin="miter" fill="none" stroke="#000000" d="M.66847-3.64444 4.3129 3.64444"/>
<path transform="matrix(1,0,0,-1,233.36402,83.574008)" stroke-width=".3985" stroke-linecap="butt" stroke-miterlimit="10" stroke-linejoin="miter" fill="none" stroke="#000000" d=""/>
<path transform="matrix(1,0,0,-1,233.36402,83.574008)" stroke-width=".3985" stroke-linecap="butt" stroke-miterlimit="10" stroke-linejoin="miter" fill="none" stroke="#000000" d="M-.66847-3.64444-4.3129 3.64444"/>
<path transform="matrix(1,0,0,-1,233.36402,88.55601)" d="M1.49442 0C1.49442 .82533 .82533 1.49442 0 1.49442-.82533 1.49442-1.49442 .82533-1.49442 0-1.49442-.82533-.82533-1.49442 0-1.49442 .82533-1.49442 1.49442-.82533 1.49442 0ZM0 0"/>
<path transform="matrix(1,0,0,-1,233.36402,83.574008)" stroke-width=".3985" stroke-linecap="butt" stroke-miterlimit="10" stroke-linejoin="miter" fill="none" stroke="#000000" d="M2.49069-4.98138C2.49069-3.60579 1.37558-2.49069 0-2.49069-1.37558-2.49069-2.49069-3.60579-2.49069-4.98138-2.49069-6.35696-1.37558-7.47208 0-7.47208 1.37558-7.47208 2.49069-6.35696 2.49069-4.98138ZM0-4.98138"/>
<path transform="matrix(1,0,0,-1,238.34502,78.593)" d="M1.49442 0C1.49442 .82533 .82533 1.49442 0 1.49442-.82533 1.49442-1.49442 .82533-1.49442 0-1.49442-.82533-.82533-1.49442 0-1.49442 .82533-1.49442 1.49442-.82533 1.49442 0ZM0 0"/>
<text xml:space="preserve" transform="matrix(1 0 -0 1 .000015258789 94.56601)" font-size="7.97011" font-family="CMMI8" font-style="italic"><tspan y="-13.206" x="240.371">k</tspan></text>
<path transform="matrix(1,0,0,-1,238.34502,68.630008)" d="M1.49442 0C1.49442 .82533 .82533 1.49442 0 1.49442-.82533 1.49442-1.49442 .82533-1.49442 0-1.49442-.82533-.82533-1.49442 0-1.49442 .82533-1.49442 1.49442-.82533 1.49442 0ZM0 0" fill="#ff0000"/>
<text fill="#ff0000" xml:space="preserve" transform="matrix(1 0 -0 1 .000015258789 94.566)" font-size="7.97011" font-family="CMMI8" font-style="italic"><tspan y="-23.168" x="240.371">&#x2113;</tspan></text>
<path transform="matrix(1,0,0,-1,228.38301,78.593)" d="M1.49442 0C1.49442 .82533 .82533 1.49442 0 1.49442-.82533 1.49442-1.49442 .82533-1.49442 0-1.49442-.82533-.82533-1.49442 0-1.49442 .82533-1.49442 1.49442-.82533 1.49442 0ZM0 0"/>
<text xml:space="preserve" transform="matrix(1 0 -0 1 0 94.566)" font-size="7.97011" font-family="CMMI8" font-style="italic"><tspan y="-14.113" x="222.473">j</tspan></text>
<path transform="matrix(1,0,0,-1,271.55903,83.574008)" stroke-width=".3985" stroke-linecap="butt" stroke-miterlimit="10" stroke-linejoin="miter" fill="none" stroke="#000000" d=""/>
<path transform="matrix(1,0,0,-1,271.55903,83.574008)" stroke-width=".3985" stroke-linecap="butt" stroke-miterlimit="10" stroke-linejoin="miter" fill="none" stroke="#000000" d="M0-3.48697V3.48697"/>
<path transform="matrix(1,0,0,-1,271.55903,83.574008)" stroke-width=".3985" stroke-linecap="butt" stroke-miterlimit="10" stroke-linejoin="miter" fill="none" stroke="#000000" d=""/>
<path transform="matrix(1,0,0,-1,271.55903,83.574008)" stroke-width=".3985" stroke-linecap="butt" stroke-miterlimit="10" stroke-linejoin="miter" fill="none" stroke="#000000" d="M0 6.4758V13.44974"/>
<path transform="matrix(1,0,0,-1,271.55903,83.574008)" stroke-width=".3985" stroke-linecap="butt" stroke-miterlimit="10" stroke-linejoin="miter" fill="none" stroke="#000000" d=""/>
<path transform="matrix(1,0,0,-1,271.55903,83.574008)" stroke-width=".3985" stroke-linecap="butt" stroke-miterlimit="10" stroke-linejoin="miter" fill="none" stroke="#ff0000" d="M0 16.43857V23.4125"/>
<path transform="matrix(1,0,0,-1,271.55903,88.55601)" d="M1.49442 0C1.49442 .82533 .82533 1.49442 0 1.49442-.82533 1.49442-1.49442 .82533-1.49442 0-1.49442-.82533-.82533-1.49442 0-1.49442 .82533-1.49442 1.49442-.82533 1.49442 0ZM0 0"/>
<path transform="matrix(1,0,0,-1,271.55903,83.574008)" stroke-width=".3985" stroke-linecap="butt" stroke-miterlimit="10" stroke-linejoin="miter" fill="none" stroke="#000000" d="M2.49069-4.98138C2.49069-3.60579 1.37558-2.49069 0-2.49069-1.37558-2.49069-2.49069-3.60579-2.49069-4.98138-2.49069-6.35696-1.37558-7.47208 0-7.47208 1.37558-7.47208 2.49069-6.35696 2.49069-4.98138ZM0-4.98138"/>
<path transform="matrix(1,0,0,-1,271.55903,78.593)" d="M1.49442 0C1.49442 .82533 .82533 1.49442 0 1.49442-.82533 1.49442-1.49442 .82533-1.49442 0-1.49442-.82533-.82533-1.49442 0-1.49442 .82533-1.49442 1.49442-.82533 1.49442 0ZM0 0"/>
<text xml:space="preserve" transform="matrix(1 0 -0 1 0 94.566)" font-size="7.97011" font-family="CMMI8" font-style="italic"><tspan y="-14.113" x="273.584">j</tspan></text>
<path transform="matrix(1,0,0,-1,271.55903,68.630008)" d="M1.49442 0C1.49442 .82533 .82533 1.49442 0 1.49442-.82533 1.49442-1.49442 .82533-1.49442 0-1.49442-.82533-.82533-1.49442 0-1.49442 .82533-1.49442 1.49442-.82533 1.49442 0ZM0 0"/>
<text xml:space="preserve" transform="matrix(1 0 -0 1 0 94.566)" font-size="7.97011" font-family="CMMI8" font-style="italic"><tspan y="-23.168" x="273.584">k</tspan></text>
<path transform="matrix(1,0,0,-1,271.55903,58.668008)" d="M1.49442 0C1.49442 .82533 .82533 1.49442 0 1.49442-.82533 1.49442-1.49442 .82533-1.49442 0-1.49442-.82533-.82533-1.49442 0-1.49442 .82533-1.49442 1.49442-.82533 1.49442 0ZM0 0" fill="#ff0000"/>
<text fill="#ff0000" xml:space="preserve" transform="matrix(1 0 -0 1 0 94.56601)" font-size="7.97011" font-family="CMMI8" font-style="italic"><tspan y="-33.131" x="273.584">&#x2113;</tspan></text>
<path transform="matrix(1,0,0,-1,142.423,47.283)" stroke-width=".3985" stroke-linecap="butt" stroke-miterlimit="10" stroke-linejoin="miter" fill="none" stroke="#000000" d="M-60.47781 4.26517-90.22102-26.3445"/>
<path transform="matrix(-.69685,.71715,.71715,.69685,52.20198,73.62748)" stroke-width=".31879" stroke-linecap="round" stroke-linejoin="round" fill="none" stroke="#000000" d="M-1.19551 1.59401C-1.09587 .99626 0 .09961 .29886 0 0-.09961-1.09587-.99626-1.19551-1.59401"/>
<path transform="matrix(1,0,0,-1,142.423,47.283)" stroke-width=".3985" stroke-linecap="butt" stroke-miterlimit="10" stroke-linejoin="miter" fill="none" stroke="#000000" d="M-47.08122 .25618V-23.80948"/>
<path transform="matrix(0,1,1,0,95.34178,71.09248)" stroke-width=".31879" stroke-linecap="round" stroke-linejoin="round" fill="none" stroke="#000000" d="M-1.19551 1.59401C-1.09587 .99626 0 .09961 .29886 0 0-.09961-1.09587-.99626-1.19551-1.59401"/>
<path transform="matrix(1,0,0,-1,142.423,47.283)" stroke-width=".3985" stroke-linecap="butt" stroke-miterlimit="10" stroke-linejoin="miter" fill="none" stroke="#000000" d="M-34.13425 3.8469-7.47601-26.07988"/>
<path transform="matrix(.66512,.74667,.74667,-.66512,134.94699,73.36286)" stroke-width=".31879" stroke-linecap="round" stroke-linejoin="round" fill="none" stroke="#000000" d="M-1.19551 1.59401C-1.09587 .99626 0 .09961 .29886 0 0-.09961-1.09587-.99626-1.19551-1.59401"/>
<path transform="matrix(1,0,0,-1,142.423,47.283)" stroke-width=".3985" stroke-linecap="butt" stroke-miterlimit="10" stroke-linejoin="miter" fill="none" stroke="#000000" d="M90.94185 .25618V-23.80948"/>
<path transform="matrix(0,1,1,0,233.36486,71.09248)" stroke-width=".31879" stroke-linecap="round" stroke-linejoin="round" fill="none" stroke="#000000" d="M-1.19551 1.59401C-1.09587 .99626 0 .09961 .29886 0 0-.09961-1.09587-.99626-1.19551-1.59401"/>
<path transform="matrix(1,0,0,-1,142.423,47.283)" stroke-width=".3985" stroke-linecap="butt" stroke-miterlimit="10" stroke-linejoin="miter" fill="none" stroke="#000000" d="M102.26897 2.60118 120.68034-25.29231"/>
<path transform="matrix(.55084,.83455,.83455,-.55084,263.10334,72.5753)" stroke-width=".31879" stroke-linecap="round" stroke-linejoin="round" fill="none" stroke="#000000" d="M-1.19551 1.59401C-1.09587 .99626 0 .09961 .29886 0 0-.09961-1.09587-.99626-1.19551-1.59401"/>
</svg>
