<svg xmlns="http://www.w3.org/2000/svg" xmlns:xlink="http://www.w3.org/1999/xlink" version="1.1" width="37.891pt" height="23.449pt" viewBox="0 0 37.891 23.449">
<text xml:space="preserve" transform="matrix(1 0 -0 1 -.00000047683718 23.449)" font-size="9.96264" font-family="CMMI10" font-style="italic"><tspan y="-8.578" x="6.641">f</tspan></text>
<text xml:space="preserve" transform="matrix(1 0 -0 1 -.00000047683718 23.449)" font-size="6.97385" font-family="CMMI7" font-style="italic"><tspan y="-12.194" x="12.591">i</tspan></text>
<path transform="matrix(1,0,0,-1,31.881,11.723999)" d="M1.49442 0C1.49442 .82533 .82533 1.49442 0 1.49442-.82533 1.49442-1.49442 .82533-1.49442 0-1.49442-.82533-.82533-1.49442 0-1.49442 .82533-1.49442 1.49442-.82533 1.49442 0ZM0 0"/>
<path transform="matrix(1,0,0,-1,31.881,11.723999)" stroke-width=".3985" stroke-linecap="butt" stroke-miterlimit="10" stroke-linejoin="miter" fill="none" stroke="#000000" d="M2.49069 0C2.49069 1.37558 1.37558 2.49069 0 2.49069-1.37558 2.49069-2.49069 1.37558-2.49069 0-2.49069-1.37558-1.37558-2.49069 0-2.49069 1.37558-2.49069 2.49069-1.37558 2.49069 0ZM0 0"/>
</svg>
