<svg xmlns="http://www.w3.org/2000/svg" xmlns:xlink="http://www.w3.org/1999/xlink" version="1.1" width="322.694pt" height="40.956pt" viewBox="0 0 322.694 40.956">
<text xml:space="preserve" transform="matrix(1 0 -0 1 .0000038146974 40.956)" font-size="9.96264" font-family="CMSY10" font-style="italic"><tspan y="-9.132" x="46.492 51.47332">{{</tspan></text>
<text xml:space="preserve" transform="matrix(1 0 -0 1 .0000038146974 40.956)" font-size="9.96264" font-family="CMMI10" font-style="italic"><tspan y="-9.132" x="56.454">j</tspan></text>
<text xml:space="preserve" transform="matrix(1 0 -0 1 .0000038146974 40.956)" font-size="9.96264" font-family="CMSY10" font-style="italic"><tspan y="-9.132" x="61.127">}</tspan></text>
<text xml:space="preserve" transform="matrix(1 0 -0 1 .0000038146974 40.956)" font-size="9.96264" font-family="CMMI10" font-style="italic"><tspan y="-9.132" x="66.109">,</tspan></text>
<text xml:space="preserve" transform="matrix(1 0 -0 1 .0000038146974 40.956)" font-size="9.96264" font-family="CMSY10" font-style="italic"><tspan y="-9.132" x="70.536">{</tspan></text>
<text xml:space="preserve" transform="matrix(1 0 -0 1 .0000038146974 40.956)" font-size="9.96264" font-family="CMMI10" font-style="italic"><tspan y="-9.132" x="75.518">k</tspan></text>
<text xml:space="preserve" transform="matrix(1 0 -0 1 .0000038146974 40.956)" font-size="9.96264" font-family="CMSY10" font-style="italic"><tspan y="-9.132" x="81.018">}</tspan></text>
<text xml:space="preserve" transform="matrix(1 0 -0 1 .0000038146974 40.956)" font-size="9.96264" font-family="CMMI10" font-style="italic"><tspan y="-9.132" x="85.999">,</tspan></text>
<text xml:space="preserve" transform="matrix(1 0 -0 1 .0000038146974 40.956)" font-size="9.96264" font-family="CMSY10" font-style="italic"><tspan y="-9.132" x="90.427">{</tspan></text>
<text xml:space="preserve" transform="matrix(1 0 -0 1 .0000038146974 40.956)" font-size="9.96264" font-family="CMMI10" font-style="italic"><tspan y="-9.132" x="95.408">&#x2113;</tspan></text>
<text xml:space="preserve" transform="matrix(1 0 -0 1 .0000038146974 40.956)" font-size="9.96264" font-family="CMSY10" font-style="italic"><tspan y="-9.132" x="99.56 104.54132">}}</tspan></text>
<path transform="matrix(1,0,0,-1,151.961,29.334)" stroke-width=".3985" stroke-linecap="butt" stroke-miterlimit="10" stroke-linejoin="miter" fill="none" stroke="#000000" d=""/>
<path transform="matrix(1,0,0,-1,151.961,29.334)" stroke-width=".3985" stroke-linecap="butt" stroke-miterlimit="10" stroke-linejoin="miter" fill="none" stroke="#ff0000" d="M1.0567 1.0567 8.90605 8.90605"/>
<path transform="matrix(1,0,0,-1,151.961,29.334)" stroke-width=".3985" stroke-linecap="butt" stroke-miterlimit="10" stroke-linejoin="miter" fill="none" stroke="#000000" d=""/>
<path transform="matrix(1,0,0,-1,151.961,29.334)" stroke-width=".3985" stroke-linecap="butt" stroke-miterlimit="10" stroke-linejoin="miter" fill="none" stroke="#000000" d="M0 1.49442V8.46835"/>
<path transform="matrix(1,0,0,-1,151.961,29.334)" stroke-width=".3985" stroke-linecap="butt" stroke-miterlimit="10" stroke-linejoin="miter" fill="none" stroke="#000000" d=""/>
<path transform="matrix(1,0,0,-1,151.961,29.334)" stroke-width=".3985" stroke-linecap="butt" stroke-miterlimit="10" stroke-linejoin="miter" fill="none" stroke="#000000" d="M-1.0567 1.0567-8.90605 8.90605"/>
<path transform="matrix(1,0,0,-1,151.961,29.334)" d="M1.49442 0C1.49442 .82533 .82533 1.49442 0 1.49442-.82533 1.49442-1.49442 .82533-1.49442 0-1.49442-.82533-.82533-1.49442 0-1.49442 .82533-1.49442 1.49442-.82533 1.49442 0ZM0 0"/>
<path transform="matrix(1,0,0,-1,151.961,29.334)" stroke-width=".3985" stroke-linecap="butt" stroke-miterlimit="10" stroke-linejoin="miter" fill="none" stroke="#000000" d="M2.49069 0C2.49069 1.37558 1.37558 2.49069 0 2.49069-1.37558 2.49069-2.49069 1.37558-2.49069 0-2.49069-1.37558-1.37558-2.49069 0-2.49069 1.37558-2.49069 2.49069-1.37558 2.49069 0ZM0 0"/>
<path transform="matrix(1,0,0,-1,161.923,19.370999)" d="M1.49442 0C1.49442 .82533 .82533 1.49442 0 1.49442-.82533 1.49442-1.49442 .82533-1.49442 0-1.49442-.82533-.82533-1.49442 0-1.49442 .82533-1.49442 1.49442-.82533 1.49442 0ZM0 0" fill="#ff0000"/>
<text fill="#ff0000" xml:space="preserve" transform="matrix(1 0 -0 1 0 40.956)" font-size="7.97011" font-family="CMMI8" font-style="italic"><tspan y="-18.818" x="163.949">&#x2113;</tspan></text>
<path transform="matrix(1,0,0,-1,151.961,19.370999)" d="M1.49442 0C1.49442 .82533 .82533 1.49442 0 1.49442-.82533 1.49442-1.49442 .82533-1.49442 0-1.49442-.82533-.82533-1.49442 0-1.49442 .82533-1.49442 1.49442-.82533 1.49442 0ZM0 0"/>
<text xml:space="preserve" transform="matrix(1 0 -0 1 0 40.956)" font-size="7.97011" font-family="CMMI8" font-style="italic"><tspan y="-18.818" x="153.986">k</tspan></text>
<path transform="matrix(1,0,0,-1,141.998,19.370999)" d="M1.49442 0C1.49442 .82533 .82533 1.49442 0 1.49442-.82533 1.49442-1.49442 .82533-1.49442 0-1.49442-.82533-.82533-1.49442 0-1.49442 .82533-1.49442 1.49442-.82533 1.49442 0ZM0 0"/>
<text xml:space="preserve" transform="matrix(1 0 -0 1 0 40.956)" font-size="7.97011" font-family="CMMI8" font-style="italic"><tspan y="-19.725" x="136.089">j</tspan></text>
<path transform="matrix(1,0,0,-1,224.79,29.334)" stroke-width=".3985" stroke-linecap="butt" stroke-miterlimit="10" stroke-linejoin="miter" fill="none" stroke="#000000" d=""/>
<path transform="matrix(1,0,0,-1,224.79,29.334)" stroke-width=".3985" stroke-linecap="butt" stroke-miterlimit="10" stroke-linejoin="miter" fill="none" stroke="#ff0000" d="M4.98138 11.45718V18.43112"/>
<path transform="matrix(1,0,0,-1,224.79,29.334)" stroke-width=".3985" stroke-linecap="butt" stroke-miterlimit="10" stroke-linejoin="miter" fill="none" stroke="#000000" d=""/>
<path transform="matrix(1,0,0,-1,224.79,29.334)" stroke-width=".3985" stroke-linecap="butt" stroke-miterlimit="10" stroke-linejoin="miter" fill="none" stroke="#000000" d="M.66847 1.33693 4.3129 8.62582"/>
<path transform="matrix(1,0,0,-1,224.79,29.334)" stroke-width=".3985" stroke-linecap="butt" stroke-miterlimit="10" stroke-linejoin="miter" fill="none" stroke="#000000" d=""/>
<path transform="matrix(1,0,0,-1,224.79,29.334)" stroke-width=".3985" stroke-linecap="butt" stroke-miterlimit="10" stroke-linejoin="miter" fill="none" stroke="#000000" d="M-.66847 1.33693-4.3129 8.62582"/>
<path transform="matrix(1,0,0,-1,224.79,29.334)" d="M1.49442 0C1.49442 .82533 .82533 1.49442 0 1.49442-.82533 1.49442-1.49442 .82533-1.49442 0-1.49442-.82533-.82533-1.49442 0-1.49442 .82533-1.49442 1.49442-.82533 1.49442 0ZM0 0"/>
<path transform="matrix(1,0,0,-1,224.79,29.334)" stroke-width=".3985" stroke-linecap="butt" stroke-miterlimit="10" stroke-linejoin="miter" fill="none" stroke="#000000" d="M2.49069 0C2.49069 1.37558 1.37558 2.49069 0 2.49069-1.37558 2.49069-2.49069 1.37558-2.49069 0-2.49069-1.37558-1.37558-2.49069 0-2.49069 1.37558-2.49069 2.49069-1.37558 2.49069 0ZM0 0"/>
<path transform="matrix(1,0,0,-1,229.77199,19.370999)" d="M1.49442 0C1.49442 .82533 .82533 1.49442 0 1.49442-.82533 1.49442-1.49442 .82533-1.49442 0-1.49442-.82533-.82533-1.49442 0-1.49442 .82533-1.49442 1.49442-.82533 1.49442 0ZM0 0"/>
<text xml:space="preserve" transform="matrix(1 0 -0 1 0 40.956)" font-size="7.97011" font-family="CMMI8" font-style="italic"><tspan y="-18.818" x="231.797">k</tspan></text>
<path transform="matrix(1,0,0,-1,229.77199,9.407999)" d="M1.49442 0C1.49442 .82533 .82533 1.49442 0 1.49442-.82533 1.49442-1.49442 .82533-1.49442 0-1.49442-.82533-.82533-1.49442 0-1.49442 .82533-1.49442 1.49442-.82533 1.49442 0ZM0 0" fill="#ff0000"/>
<text fill="#ff0000" xml:space="preserve" transform="matrix(1 0 -0 1 0 40.956)" font-size="7.97011" font-family="CMMI8" font-style="italic"><tspan y="-28.78" x="231.797">&#x2113;</tspan></text>
<path transform="matrix(1,0,0,-1,219.80899,19.370999)" d="M1.49442 0C1.49442 .82533 .82533 1.49442 0 1.49442-.82533 1.49442-1.49442 .82533-1.49442 0-1.49442-.82533-.82533-1.49442 0-1.49442 .82533-1.49442 1.49442-.82533 1.49442 0ZM0 0"/>
<text xml:space="preserve" transform="matrix(1 0 -0 1 -.000015258789 40.956)" font-size="7.97011" font-family="CMMI8" font-style="italic"><tspan y="-19.725" x="213.899">j</tspan></text>
<text xml:space="preserve" transform="matrix(1 0 -0 1 0 40.956)" font-size="9.96264" font-family="CMSY10" font-style="italic"><tspan y="-9.132" x="262.985 267.9663">{{</tspan></text>
<text xml:space="preserve" transform="matrix(1 0 -0 1 0 40.956)" font-size="9.96264" font-family="CMMI10" font-style="italic"><tspan y="-9.132" x="272.948">j</tspan></text>
<text xml:space="preserve" transform="matrix(1 0 -0 1 0 40.956)" font-size="9.96264" font-family="CMSY10" font-style="italic"><tspan y="-9.132" x="277.62">}</tspan></text>
<text xml:space="preserve" transform="matrix(1 0 -0 1 0 40.956)" font-size="9.96264" font-family="CMMI10" font-style="italic"><tspan y="-9.132" x="282.602">,</tspan></text>
<text xml:space="preserve" transform="matrix(1 0 -0 1 0 40.956)" font-size="9.96264" font-family="CMSY10" font-style="italic"><tspan y="-9.132" x="287.03">{</tspan></text>
<text xml:space="preserve" transform="matrix(1 0 -0 1 0 40.956)" font-size="9.96264" font-family="CMMI10" font-style="italic"><tspan y="-9.132" x="292.011 297.51036 301.94374">k,&#x2113;</tspan></text>
<text xml:space="preserve" transform="matrix(1 0 -0 1 0 40.956)" font-size="9.96264" font-family="CMSY10" font-style="italic"><tspan y="-9.132" x="306.09 311.07133">}}</tspan></text>
</svg>
