<svg xmlns="http://www.w3.org/2000/svg" xmlns:xlink="http://www.w3.org/1999/xlink" version="1.1" width="19.191pt" height="52.59pt" viewBox="0 0 19.191 52.59">
<path transform="matrix(1,0,0,-1,6.641,6.640999)" d="M1.49442 0C1.49442 .82533 .82533 1.49442 0 1.49442-.82533 1.49442-1.49442 .82533-1.49442 0-1.49442-.82533-.82533-1.49442 0-1.49442 .82533-1.49442 1.49442-.82533 1.49442 0ZM0 0"/>
<path transform="matrix(1,0,0,-1,6.641,6.640999)" stroke-width=".3985" stroke-linecap="butt" stroke-miterlimit="10" stroke-linejoin="miter" fill="none" stroke="#000000" d="M2.49069 0C2.49069 1.37558 1.37558 2.49069 0 2.49069-1.37558 2.49069-2.49069 1.37558-2.49069 0-2.49069-1.37558-1.37558-2.49069 0-2.49069 1.37558-2.49069 2.49069-1.37558 2.49069 0ZM0 0"/>
<path transform="matrix(1,0,0,-1,6.641,41.598)" stroke-width=".3985" stroke-linecap="butt" stroke-miterlimit="10" stroke-linejoin="miter" fill="none" stroke="#000000" d=""/>
<path transform="matrix(1,0,0,-1,6.641,41.598)" stroke-width=".3985" stroke-linecap="butt" stroke-miterlimit="10" stroke-linejoin="miter" fill="none" stroke="#ff0000" d="M0-3.48697V3.48697"/>
<path transform="matrix(1,0,0,-1,6.641,46.579999)" d="M1.49442 0C1.49442 .82533 .82533 1.49442 0 1.49442-.82533 1.49442-1.49442 .82533-1.49442 0-1.49442-.82533-.82533-1.49442 0-1.49442 .82533-1.49442 1.49442-.82533 1.49442 0ZM0 0"/>
<path transform="matrix(1,0,0,-1,6.641,41.598)" stroke-width=".3985" stroke-linecap="butt" stroke-miterlimit="10" stroke-linejoin="miter" fill="none" stroke="#000000" d="M2.49069-4.98138C2.49069-3.60579 1.37558-2.49069 0-2.49069-1.37558-2.49069-2.49069-3.60579-2.49069-4.98138-2.49069-6.35696-1.37558-7.47208 0-7.47208 1.37558-7.47208 2.49069-6.35696 2.49069-4.98138ZM0-4.98138"/>
<path transform="matrix(1,0,0,-1,6.641,36.617)" d="M1.49442 0C1.49442 .82533 .82533 1.49442 0 1.49442-.82533 1.49442-1.49442 .82533-1.49442 0-1.49442-.82533-.82533-1.49442 0-1.49442 .82533-1.49442 1.49442-.82533 1.49442 0ZM0 0" fill="#ff0000"/>
<text fill="#ff0000" xml:space="preserve" transform="matrix(1 0 -0 1 0 52.59)" font-size="7.97011" font-family="CMMI8" font-style="italic"><tspan y="-14.113" x="8.666">j</tspan></text>
<path transform="matrix(1,0,0,-1,9.596,26.295)" stroke-width=".3985" stroke-linecap="butt" stroke-miterlimit="10" stroke-linejoin="miter" fill="none" stroke="#000000" d="M-2.95473 1.96086V-2.82121"/>
<path transform="matrix(0,1,1,0,6.6412699,29.11621)" stroke-width=".31879" stroke-linecap="round" stroke-linejoin="round" fill="none" stroke="#000000" d="M-1.19551 1.59401C-1.09587 .99626 0 .09961 .29886 0 0-.09961-1.09587-.99626-1.19551-1.59401"/>
</svg>
