<svg xmlns="http://www.w3.org/2000/svg" xmlns:xlink="http://www.w3.org/1999/xlink" version="1.1" width="275.008pt" height="77.722pt" viewBox="0 0 275.008 77.722">
<path transform="matrix(1,0,0,-1,158.844,20.013)" stroke-width=".3985" stroke-linecap="butt" stroke-miterlimit="10" stroke-linejoin="miter" fill="none" stroke="#000000" d=""/>
<path transform="matrix(1,0,0,-1,158.844,20.013)" stroke-width=".3985" stroke-linecap="butt" stroke-miterlimit="10" stroke-linejoin="miter" fill="none" stroke="#ff0000" d="M0 1.49442V8.46835"/>
<path transform="matrix(1,0,0,-1,158.844,20.013)" d="M1.49442 0C1.49442 .82533 .82533 1.49442 0 1.49442-.82533 1.49442-1.49442 .82533-1.49442 0-1.49442-.82533-.82533-1.49442 0-1.49442 .82533-1.49442 1.49442-.82533 1.49442 0ZM0 0"/>
<path transform="matrix(1,0,0,-1,158.844,20.013)" stroke-width=".3985" stroke-linecap="butt" stroke-miterlimit="10" stroke-linejoin="miter" fill="none" stroke="#000000" d="M2.49069 0C2.49069 1.37558 1.37558 2.49069 0 2.49069-1.37558 2.49069-2.49069 1.37558-2.49069 0-2.49069-1.37558-1.37558-2.49069 0-2.49069 1.37558-2.49069 2.49069-1.37558 2.49069 0ZM0 0"/>
<path transform="matrix(1,0,0,-1,158.844,10.051001)" d="M1.49442 0C1.49442 .82533 .82533 1.49442 0 1.49442-.82533 1.49442-1.49442 .82533-1.49442 0-1.49442-.82533-.82533-1.49442 0-1.49442 .82533-1.49442 1.49442-.82533 1.49442 0ZM0 0" fill="#ff0000"/>
<text fill="#ff0000" xml:space="preserve" transform="matrix(1 0 -0 1 0 77.722)" font-size="7.97011" font-family="CMMI8" font-style="italic"><tspan y="-65.812" x="160.87">j</tspan></text>
<text xml:space="preserve" transform="matrix(1 0 -0 1 0 77.722)" font-size="9.96264" font-family="CMMI10" font-style="italic"><tspan y="-10.59" x="26.566">f</tspan></text>
<text xml:space="preserve" transform="matrix(1 0 -0 1 0 77.722)" font-size="6.97385" font-family="CMMI7" font-style="italic"><tspan y="-9.096" x="31.444 36.625574">&#x03b1;&#x03b2;</tspan></text>
<text xml:space="preserve" transform="matrix(1 0 -0 1 0 77.722)" font-size="9.96264" font-family="CMMI10" font-style="italic"><tspan y="-10.59" x="41.997">g</tspan></text>
<text xml:space="preserve" transform="matrix(1 0 -0 1 0 77.722)" font-size="6.97385" font-family="CMMI7" font-style="italic"><tspan y="-14.206" x="47.107">&#x03b1;</tspan><tspan y="-7.997" x="46.749">j</tspan></text>
<text xml:space="preserve" transform="matrix(1 0 -0 1 0 77.722)" font-size="9.96264" font-family="CMMI10" font-style="italic"><tspan y="-10.59" x="52.784">g</tspan></text>
<text xml:space="preserve" transform="matrix(1 0 -0 1 0 77.722)" font-size="6.97385" font-family="CMMI7" font-style="italic"><tspan y="-15.378" x="57.893">&#x03b2;</tspan><tspan y="-7.585" x="57.536">k</tspan></text>
<path transform="matrix(1,0,0,-1,100.724,64.291)" stroke-width=".3985" stroke-linecap="butt" stroke-miterlimit="10" stroke-linejoin="miter" fill="none" stroke="#000000" d=""/>
<path transform="matrix(1,0,0,-1,100.724,64.291)" stroke-width=".3985" stroke-linecap="butt" stroke-miterlimit="10" stroke-linejoin="miter" fill="none" stroke="#ff0000" d="M.66847-3.64444 4.3129 3.64444"/>
<path transform="matrix(1,0,0,-1,100.724,64.291)" stroke-width=".3985" stroke-linecap="butt" stroke-miterlimit="10" stroke-linejoin="miter" fill="none" stroke="#000000" d=""/>
<path transform="matrix(1,0,0,-1,100.724,64.291)" stroke-width=".3985" stroke-linecap="butt" stroke-miterlimit="10" stroke-linejoin="miter" fill="none" stroke="#000000" d="M-.66847-3.64444-4.3129 3.64444"/>
<path transform="matrix(1,0,0,-1,100.724,69.272)" d="M1.49442 0C1.49442 .82533 .82533 1.49442 0 1.49442-.82533 1.49442-1.49442 .82533-1.49442 0-1.49442-.82533-.82533-1.49442 0-1.49442 .82533-1.49442 1.49442-.82533 1.49442 0ZM0 0"/>
<path transform="matrix(1,0,0,-1,100.724,64.291)" stroke-width=".3985" stroke-linecap="butt" stroke-miterlimit="10" stroke-linejoin="miter" fill="none" stroke="#000000" d="M2.49069-4.98138C2.49069-3.60579 1.37558-2.49069 0-2.49069-1.37558-2.49069-2.49069-3.60579-2.49069-4.98138-2.49069-6.35696-1.37558-7.47208 0-7.47208 1.37558-7.47208 2.49069-6.35696 2.49069-4.98138ZM0-4.98138"/>
<path transform="matrix(1,0,0,-1,105.706,59.31)" d="M1.49442 0C1.49442 .82533 .82533 1.49442 0 1.49442-.82533 1.49442-1.49442 .82533-1.49442 0-1.49442-.82533-.82533-1.49442 0-1.49442 .82533-1.49442 1.49442-.82533 1.49442 0ZM0 0" fill="#ff0000"/>
<text fill="#ff0000" xml:space="preserve" transform="matrix(1 0 -0 1 0 77.722)" font-size="7.97011" font-family="CMMI8" font-style="italic"><tspan y="-15.645" x="107.731">k</tspan></text>
<path transform="matrix(1,0,0,-1,95.743,59.31)" d="M1.49442 0C1.49442 .82533 .82533 1.49442 0 1.49442-.82533 1.49442-1.49442 .82533-1.49442 0-1.49442-.82533-.82533-1.49442 0-1.49442 .82533-1.49442 1.49442-.82533 1.49442 0ZM0 0"/>
<text xml:space="preserve" transform="matrix(1 0 -0 1 0 77.722)" font-size="7.97011" font-family="CMMI8" font-style="italic"><tspan y="-16.553" x="89.834">j</tspan></text>
<path transform="matrix(1,0,0,-1,211.245,64.291)" stroke-width=".3985" stroke-linecap="butt" stroke-miterlimit="10" stroke-linejoin="miter" fill="none" stroke="#000000" d=""/>
<path transform="matrix(1,0,0,-1,211.245,64.291)" stroke-width=".3985" stroke-linecap="butt" stroke-miterlimit="10" stroke-linejoin="miter" fill="none" stroke="#000000" d="M0-3.48697V3.48697"/>
<path transform="matrix(1,0,0,-1,211.245,64.291)" stroke-width=".3985" stroke-linecap="butt" stroke-miterlimit="10" stroke-linejoin="miter" fill="none" stroke="#000000" d=""/>
<path transform="matrix(1,0,0,-1,211.245,64.291)" stroke-width=".3985" stroke-linecap="butt" stroke-miterlimit="10" stroke-linejoin="miter" fill="none" stroke="#ff0000" d="M0 6.4758V13.44974"/>
<path transform="matrix(1,0,0,-1,211.245,69.272)" d="M1.49442 0C1.49442 .82533 .82533 1.49442 0 1.49442-.82533 1.49442-1.49442 .82533-1.49442 0-1.49442-.82533-.82533-1.49442 0-1.49442 .82533-1.49442 1.49442-.82533 1.49442 0ZM0 0"/>
<path transform="matrix(1,0,0,-1,211.245,64.291)" stroke-width=".3985" stroke-linecap="butt" stroke-miterlimit="10" stroke-linejoin="miter" fill="none" stroke="#000000" d="M2.49069-4.98138C2.49069-3.60579 1.37558-2.49069 0-2.49069-1.37558-2.49069-2.49069-3.60579-2.49069-4.98138-2.49069-6.35696-1.37558-7.47208 0-7.47208 1.37558-7.47208 2.49069-6.35696 2.49069-4.98138ZM0-4.98138"/>
<path transform="matrix(1,0,0,-1,211.245,59.31)" d="M1.49442 0C1.49442 .82533 .82533 1.49442 0 1.49442-.82533 1.49442-1.49442 .82533-1.49442 0-1.49442-.82533-.82533-1.49442 0-1.49442 .82533-1.49442 1.49442-.82533 1.49442 0ZM0 0"/>
<text xml:space="preserve" transform="matrix(1 0 -0 1 0 77.722)" font-size="7.97011" font-family="CMMI8" font-style="italic"><tspan y="-16.553" x="213.271">j</tspan></text>
<path transform="matrix(1,0,0,-1,211.245,49.347)" d="M1.49442 0C1.49442 .82533 .82533 1.49442 0 1.49442-.82533 1.49442-1.49442 .82533-1.49442 0-1.49442-.82533-.82533-1.49442 0-1.49442 .82533-1.49442 1.49442-.82533 1.49442 0ZM0 0" fill="#ff0000"/>
<text fill="#ff0000" xml:space="preserve" transform="matrix(1 0 -0 1 0 77.722)" font-size="7.97011" font-family="CMMI8" font-style="italic"><tspan y="-25.607" x="213.271">k</tspan></text>
<text xml:space="preserve" transform="matrix(1 0 -0 1 0 77.722)" font-size="9.96264" font-family="CMMI10" font-style="italic"><tspan y="-12.06" x="244.459">f</tspan></text>
<text xml:space="preserve" transform="matrix(1 0 -0 1 0 77.722)" font-size="6.97385" font-family="CMMI7" font-style="italic"><tspan y="-10.566" x="249.336">&#x03b1;</tspan></text>
<text xml:space="preserve" transform="matrix(1 0 -0 1 0 77.722)" font-size="9.96264" font-family="CMMI10" font-style="italic"><tspan y="-12.06" x="255.014">g</tspan></text>
<text xml:space="preserve" transform="matrix(1 0 -0 1 0 77.722)" font-size="6.97385" font-family="CMMI7" font-style="italic"><tspan y="-15.676" x="260.123">&#x03b1;</tspan><tspan y="-9.239" x="259.765 263.46119">jk</tspan></text>
<path transform="matrix(1,0,0,-1,137.504,38.861)" stroke-width=".3985" stroke-linecap="butt" stroke-miterlimit="10" stroke-linejoin="miter" fill="none" stroke="#000000" d="M6.36797 6.97914-26.01839-16.63101"/>
<path transform="matrix(-.80804,.58907,.58907,.80804,111.48563,55.492013)" stroke-width=".31879" stroke-linecap="round" stroke-linejoin="round" fill="none" stroke="#000000" d="M-1.19551 1.59401C-1.09587 .99626 0 .09961 .29886 0 0-.09961-1.09587-.99626-1.19551-1.59401"/>
<path transform="matrix(1,0,0,-1,137.504,38.861)" stroke-width=".3985" stroke-linecap="butt" stroke-miterlimit="10" stroke-linejoin="miter" fill="none" stroke="#000000" d="M35.81456 6.33553 63.29567-16.22404"/>
<path transform="matrix(.77287,.63448,.63448,-.77287,200.79965,55.08503)" stroke-width=".31879" stroke-linecap="round" stroke-linejoin="round" fill="none" stroke="#000000" d="M-1.19551 1.59401C-1.09587 .99626 0 .09961 .29886 0 0-.09961-1.09587-.99626-1.19551-1.59401"/>
</svg>
