<svg xmlns="http://www.w3.org/2000/svg" xmlns:xlink="http://www.w3.org/1999/xlink" version="1.1" width="91.248pt" height="82.742pt" viewBox="0 0 91.248 82.742">
<text xml:space="preserve" transform="matrix(1 0 -0 1 -.0000009536743 82.742)" font-size="9.96264" font-family="CMMI10" font-style="italic"><tspan y="-52.038" x="14.321">f</tspan></text>
<text xml:space="preserve" transform="matrix(1 0 -0 1 -.0000009536743 82.742)" font-size="6.97385" font-family="CMMI7" font-style="italic"><tspan y="-50.543" x="19.198">&#x03b1;</tspan></text>
<text xml:space="preserve" transform="matrix(1 0 -0 1 -.0000009536743 82.742)" font-size="9.96264" font-family="CMMI10" font-style="italic"><tspan y="-52.038" x="24.876">g</tspan></text>
<text xml:space="preserve" transform="matrix(1 0 -0 1 -.0000009536743 82.742)" font-size="6.97385" font-family="CMMI7" font-style="italic"><tspan y="-55.653" x="29.985">&#x03b1;</tspan><tspan y="-49.216" x="29.628 33.324144">jk</tspan></text>
<path transform="matrix(1,0,0,-1,74.141,29.334)" stroke-width=".3985" stroke-linecap="butt" stroke-miterlimit="10" stroke-linejoin="miter" fill="none" stroke="#000000" d=""/>
<path transform="matrix(1,0,0,-1,74.141,29.334)" stroke-width=".3985" stroke-linecap="butt" stroke-miterlimit="10" stroke-linejoin="miter" fill="none" stroke="#000000" d="M0 1.49442V8.46835"/>
<path transform="matrix(1,0,0,-1,74.141,29.334)" stroke-width=".3985" stroke-linecap="butt" stroke-miterlimit="10" stroke-linejoin="miter" fill="none" stroke="#000000" d=""/>
<path transform="matrix(1,0,0,-1,74.141,29.334)" stroke-width=".3985" stroke-linecap="butt" stroke-miterlimit="10" stroke-linejoin="miter" fill="none" stroke="#000000" d="M0 11.45718V18.43112"/>
<path transform="matrix(1,0,0,-1,74.141,29.334)" d="M1.49442 0C1.49442 .82533 .82533 1.49442 0 1.49442-.82533 1.49442-1.49442 .82533-1.49442 0-1.49442-.82533-.82533-1.49442 0-1.49442 .82533-1.49442 1.49442-.82533 1.49442 0ZM0 0"/>
<path transform="matrix(1,0,0,-1,74.141,29.334)" stroke-width=".3985" stroke-linecap="butt" stroke-miterlimit="10" stroke-linejoin="miter" fill="none" stroke="#000000" d="M2.49069 0C2.49069 1.37558 1.37558 2.49069 0 2.49069-1.37558 2.49069-2.49069 1.37558-2.49069 0-2.49069-1.37558-1.37558-2.49069 0-2.49069 1.37558-2.49069 2.49069-1.37558 2.49069 0ZM0 0"/>
<path transform="matrix(1,0,0,-1,74.141,19.370999)" d="M1.49442 0C1.49442 .82533 .82533 1.49442 0 1.49442-.82533 1.49442-1.49442 .82533-1.49442 0-1.49442-.82533-.82533-1.49442 0-1.49442 .82533-1.49442 1.49442-.82533 1.49442 0ZM0 0"/>
<text xml:space="preserve" transform="matrix(1 0 -0 1 0 82.742008)" font-size="7.97011" font-family="CMMI8" font-style="italic"><tspan y="-61.511" x="76.166">j</tspan></text>
<path transform="matrix(1,0,0,-1,74.141,9.409)" d="M1.49442 0C1.49442 .82533 .82533 1.49442 0 1.49442-.82533 1.49442-1.49442 .82533-1.49442 0-1.49442-.82533-.82533-1.49442 0-1.49442 .82533-1.49442 1.49442-.82533 1.49442 0ZM0 0"/>
<text xml:space="preserve" transform="matrix(1 0 -0 1 0 82.742008)" font-size="7.97011" font-family="CMMI8" font-style="italic"><tspan y="-70.566" x="76.166">k</tspan></text>
<text xml:space="preserve" transform="matrix(1 0 -0 1 -.000002861023 82.742)" font-size="9.96264" font-family="CMMI10" font-style="italic"><tspan y="-10.819" x="6.641">f</tspan></text>
<text xml:space="preserve" transform="matrix(1 0 -0 1 -.000002861023 82.742)" font-size="6.97385" font-family="CMMI7" font-style="italic"><tspan y="-9.324" x="11.519 16.700572">&#x03b1;&#x03b2;</tspan></text>
<text xml:space="preserve" transform="matrix(1 0 -0 1 -.000002861023 82.742)" font-size="9.96264" font-family="CMMI10" font-style="italic"><tspan y="-10.819" x="22.072">g</tspan></text>
<text xml:space="preserve" transform="matrix(1 0 -0 1 -.000002861023 82.742)" font-size="6.97385" font-family="CMMI7" font-style="italic"><tspan y="-14.434" x="27.181">&#x03b1;</tspan><tspan y="-7.997" x="26.824 30.52014">jk</tspan></text>
<text xml:space="preserve" transform="matrix(1 0 -0 1 -.000002861023 82.742)" font-size="9.96264" font-family="CMMI10" font-style="italic"><tspan y="-10.819" x="35.425">g</tspan></text>
<text xml:space="preserve" transform="matrix(1 0 -0 1 -.000002861023 82.742)" font-size="6.97385" font-family="CMMI7" font-style="italic"><tspan y="-15.606" x="40.535">&#x03b2;</tspan><tspan y="-7.813" x="40.177">&#x2113;</tspan></text>
<path transform="matrix(1,0,0,-1,74.141,69.197)" stroke-width=".3985" stroke-linecap="butt" stroke-miterlimit="10" stroke-linejoin="miter" fill="none" stroke="#000000" d=""/>
<path transform="matrix(1,0,0,-1,74.141,69.197)" stroke-width=".3985" stroke-linecap="butt" stroke-miterlimit="10" stroke-linejoin="miter" fill="none" stroke="#000000" d="M-4.98138 6.4758V13.44974"/>
<path transform="matrix(1,0,0,-1,74.141,69.197)" stroke-width=".3985" stroke-linecap="butt" stroke-miterlimit="10" stroke-linejoin="miter" fill="none" stroke="#000000" d=""/>
<path transform="matrix(1,0,0,-1,74.141,69.197)" stroke-width=".3985" stroke-linecap="butt" stroke-miterlimit="10" stroke-linejoin="miter" fill="none" stroke="#000000" d="M.66847-3.64444 4.3129 3.64444"/>
<path transform="matrix(1,0,0,-1,74.141,69.197)" stroke-width=".3985" stroke-linecap="butt" stroke-miterlimit="10" stroke-linejoin="miter" fill="none" stroke="#000000" d=""/>
<path transform="matrix(1,0,0,-1,74.141,69.197)" stroke-width=".3985" stroke-linecap="butt" stroke-miterlimit="10" stroke-linejoin="miter" fill="none" stroke="#000000" d="M-.66847-3.64444-4.3129 3.64444"/>
<path transform="matrix(1,0,0,-1,74.141,74.178)" d="M1.49442 0C1.49442 .82533 .82533 1.49442 0 1.49442-.82533 1.49442-1.49442 .82533-1.49442 0-1.49442-.82533-.82533-1.49442 0-1.49442 .82533-1.49442 1.49442-.82533 1.49442 0ZM0 0"/>
<path transform="matrix(1,0,0,-1,74.141,69.197)" stroke-width=".3985" stroke-linecap="butt" stroke-miterlimit="10" stroke-linejoin="miter" fill="none" stroke="#000000" d="M2.49069-4.98138C2.49069-3.60579 1.37558-2.49069 0-2.49069-1.37558-2.49069-2.49069-3.60579-2.49069-4.98138-2.49069-6.35696-1.37558-7.47208 0-7.47208 1.37558-7.47208 2.49069-6.35696 2.49069-4.98138ZM0-4.98138"/>
<path transform="matrix(1,0,0,-1,79.122,64.215999)" d="M1.49442 0C1.49442 .82533 .82533 1.49442 0 1.49442-.82533 1.49442-1.49442 .82533-1.49442 0-1.49442-.82533-.82533-1.49442 0-1.49442 .82533-1.49442 1.49442-.82533 1.49442 0ZM0 0"/>
<text xml:space="preserve" transform="matrix(1 0 -0 1 -.0000076293949 82.742008)" font-size="7.97011" font-family="CMMI8" font-style="italic"><tspan y="-15.759" x="81.147">&#x2113;</tspan></text>
<path transform="matrix(1,0,0,-1,69.159,64.215999)" d="M1.49442 0C1.49442 .82533 .82533 1.49442 0 1.49442-.82533 1.49442-1.49442 .82533-1.49442 0-1.49442-.82533-.82533-1.49442 0-1.49442 .82533-1.49442 1.49442-.82533 1.49442 0ZM0 0"/>
<text xml:space="preserve" transform="matrix(1 0 -0 1 0 82.742)" font-size="7.97011" font-family="CMMI8" font-style="italic"><tspan y="-16.667" x="63.25">j</tspan></text>
<path transform="matrix(1,0,0,-1,69.159,54.253)" d="M1.49442 0C1.49442 .82533 .82533 1.49442 0 1.49442-.82533 1.49442-1.49442 .82533-1.49442 0-1.49442-.82533-.82533-1.49442 0-1.49442 .82533-1.49442 1.49442-.82533 1.49442 0ZM0 0"/>
<text xml:space="preserve" transform="matrix(1 0 -0 1 0 82.742)" font-size="7.97011" font-family="CMMI8" font-style="italic"><tspan y="-25.722" x="62.512">k</tspan></text>
</svg>
