<svg xmlns="http://www.w3.org/2000/svg" xmlns:xlink="http://www.w3.org/1999/xlink" version="1.1" width="89.106pt" height="33.444pt" viewBox="0 0 89.106 33.444">
<text xml:space="preserve" transform="matrix(1 0 -0 1 .000002861023 33.444)" font-size="9.96264" font-family="CMMI10" font-style="italic"><tspan y="-10.59" x="6.641">f</tspan></text>
<text xml:space="preserve" transform="matrix(1 0 -0 1 .000002861023 33.444)" font-size="6.97385" font-family="CMMI7" font-style="italic"><tspan y="-9.096" x="11.519 16.700572">&#x03b1;&#x03b2;</tspan></text>
<text xml:space="preserve" transform="matrix(1 0 -0 1 .000002861023 33.444)" font-size="9.96264" font-family="CMMI10" font-style="italic"><tspan y="-10.59" x="22.072">g</tspan></text>
<text xml:space="preserve" transform="matrix(1 0 -0 1 .000002861023 33.444)" font-size="6.97385" font-family="CMMI7" font-style="italic"><tspan y="-14.206" x="27.181">&#x03b1;</tspan><tspan y="-7.997" x="26.824">j</tspan></text>
<text xml:space="preserve" transform="matrix(1 0 -0 1 .000002861023 33.444)" font-size="9.96264" font-family="CMMI10" font-style="italic"><tspan y="-10.59" x="32.859">g</tspan></text>
<text xml:space="preserve" transform="matrix(1 0 -0 1 .000002861023 33.444)" font-size="6.97385" font-family="CMMI7" font-style="italic"><tspan y="-15.378" x="37.968">&#x03b2;</tspan><tspan y="-7.585" x="37.611">k</tspan></text>
<path transform="matrix(1,0,0,-1,70.836009,20.013)" stroke-width=".3985" stroke-linecap="butt" stroke-miterlimit="10" stroke-linejoin="miter" fill="none" stroke="#000000" d=""/>
<path transform="matrix(1,0,0,-1,70.836009,20.013)" stroke-width=".3985" stroke-linecap="butt" stroke-miterlimit="10" stroke-linejoin="miter" fill="none" stroke="#000000" d="M.66847 1.33693 4.3129 8.62582"/>
<path transform="matrix(1,0,0,-1,70.836009,20.013)" stroke-width=".3985" stroke-linecap="butt" stroke-miterlimit="10" stroke-linejoin="miter" fill="none" stroke="#000000" d=""/>
<path transform="matrix(1,0,0,-1,70.836009,20.013)" stroke-width=".3985" stroke-linecap="butt" stroke-miterlimit="10" stroke-linejoin="miter" fill="none" stroke="#000000" d="M-.66847 1.33693-4.3129 8.62582"/>
<path transform="matrix(1,0,0,-1,70.836009,20.013)" d="M1.49442 0C1.49442 .82533 .82533 1.49442 0 1.49442-.82533 1.49442-1.49442 .82533-1.49442 0-1.49442-.82533-.82533-1.49442 0-1.49442 .82533-1.49442 1.49442-.82533 1.49442 0ZM0 0"/>
<path transform="matrix(1,0,0,-1,70.836009,20.013)" stroke-width=".3985" stroke-linecap="butt" stroke-miterlimit="10" stroke-linejoin="miter" fill="none" stroke="#000000" d="M2.49069 0C2.49069 1.37558 1.37558 2.49069 0 2.49069-1.37558 2.49069-2.49069 1.37558-2.49069 0-2.49069-1.37558-1.37558-2.49069 0-2.49069 1.37558-2.49069 2.49069-1.37558 2.49069 0ZM0 0"/>
<path transform="matrix(1,0,0,-1,75.81801,10.05)" d="M1.49442 0C1.49442 .82533 .82533 1.49442 0 1.49442-.82533 1.49442-1.49442 .82533-1.49442 0-1.49442-.82533-.82533-1.49442 0-1.49442 .82533-1.49442 1.49442-.82533 1.49442 0ZM0 0"/>
<text xml:space="preserve" transform="matrix(1 0 -0 1 0 33.444)" font-size="7.97011" font-family="CMMI8" font-style="italic"><tspan y="-20.626" x="77.843">k</tspan></text>
<path transform="matrix(1,0,0,-1,65.855,10.05)" d="M1.49442 0C1.49442 .82533 .82533 1.49442 0 1.49442-.82533 1.49442-1.49442 .82533-1.49442 0-1.49442-.82533-.82533-1.49442 0-1.49442 .82533-1.49442 1.49442-.82533 1.49442 0ZM0 0"/>
<text xml:space="preserve" transform="matrix(1 0 -0 1 .0000076293949 33.444)" font-size="7.97011" font-family="CMMI8" font-style="italic"><tspan y="-21.534" x="59.946">j</tspan></text>
</svg>
